<?xml version="1.0" encoding="utf-8"?>
<!-- Generator: Adobe Illustrator 25.4.1, SVG Export Plug-In . SVG Version: 6.00 Build 0)  -->
<svg version="1.1" id="Layer_1" xmlns="http://www.w3.org/2000/svg" xmlns:xlink="http://www.w3.org/1999/xlink" x="0px" y="0px"
	 viewBox="0 0 614 316" style="enable-background:new 0 0 614 316;" xml:space="preserve">
<style type="text/css">
	.st0{fill:#023B3F;}
	.st1{fill:#FFFFFF;}
	.st2{fill:#3CFF00;}
</style>
<rect class="st0" width="614" height="316"/>
<path class="st1" d="M337.1,117.1c0-3.7-1.8-6.4-6.3-6.4c-3.4,0.1-6.6,1.8-8.6,4.6v30.8H307v-29c0-3.7-1.7-6.4-6.3-6.4
	c-4,0-6.9,2.7-8.5,4.6v30.8H277V98.4h15.2v5.8c2.1-2.8,8.2-7,15.7-7c6.8,0,11.6,2.9,13.5,8.5c3.8-5.3,10-8.5,16.5-8.5
	c8.8,0,14.3,4.5,14.3,14.3v34.6h-15.2V117.1z"/>
<path class="st1" d="M363.7,152.1c3.5,0,5.6-0.7,6.4-2.7l1.1-2.6l-19-48.4h16l10.8,30.2l10.8-30.2h16.1l-21.5,54.5
	c-3.9,10.1-11.1,12.4-20.2,12.6c-2.2,0-4.4-0.3-6.5-0.8l2.2-13.5C361.1,151.7,362.4,152,363.7,152.1z"/>
<path class="st1" d="M309.7,158.2c14.4,0,23.3,7.1,28.2,15.3l-14.2,7.5c-3-4.8-8.2-7.8-13.9-7.8c-10.8,0-18.4,8.3-18.4,19.1
	s7.6,19.1,18.4,19.1c4.5,0.1,8.8-1.3,12.5-3.9v-5.5H307v-14.1h31.8v25.8c-7.4,8.3-18,13-29.1,12.9c-19.7,0-35.7-13.1-35.7-34.1
	S290,158.2,309.7,158.2z"/>
<path class="st1" d="M342.6,201.2c0-13.4,9.8-25,26-25c16.4,0,26.1,11.6,26.1,25s-9.7,25.1-26.1,25.1
	C352.4,226.3,342.6,214.7,342.6,201.2z M379.1,201.2c0-6.3-3.8-11.6-10.5-11.6s-10.3,5.2-10.3,11.6s3.6,11.7,10.3,11.7
	S379.1,207.7,379.1,201.2z"/>
<path class="st1" d="M391.2,177.4h16l10.8,30.2l10.9-30.2H445l-18.8,47.7H410L391.2,177.4z"/>
<path class="st2" d="M448.1,160.2h15.2v65h-15.2V160.2z"/>
<path class="st2" d="M471.5,159.2h27.7c20.8,0,35.7,12.4,35.7,32.9s-14.9,33-35.6,33h-27.8V159.2z M499.2,210.3
	c11.6,0,18.3-8.4,18.3-18.2c0-10.2-6.1-18.1-18.2-18.1h-10.8v36.3L499.2,210.3z"/>
<path class="st2" d="M229.8,187.6c-0.6,0-1.1-0.2-1.7-0.4c-2.7-1.1-3.9-4.1-2.9-6.8c0.9-2.1,1.5-4.3,2-6.5
	c4.8-21.8-1.1-44.5-15.8-61.3c-1.9-2.2-1.7-5.5,0.5-7.3c2.2-1.9,5.5-1.7,7.3,0.5c16.9,19.2,23.6,45.3,18.1,70.3
	c-0.6,2.8-1.5,5.6-2.6,8.3C234,186.4,232,187.7,229.8,187.6z"/>
<path class="st2" d="M131,116.3c-2.9-0.2-5.1-2.6-4.9-5.5c0.1-1.8,1.1-3.4,2.7-4.3c9.3-5.2,19.9-7.9,30.5-7.7
	c2.9-0.1,5.3,2.2,5.3,5.1c0.1,2.9-2.2,5.3-5.1,5.3c-0.1,0-0.3,0-0.4,0c-8.8-0.2-17.5,2-25.2,6.3C133,116.2,132,116.4,131,116.3z"/>
<path class="st2" d="M138.6,229.2l-2.8-2.2c-22.5-19.3-32.6-49.4-26.4-78.4c1.6-7.6,5-14.6,9.8-20.7c1.8-2.2,1.4-5.5-0.8-7.3
	c-2.2-1.8-5.5-1.4-7.3,0.8c-5.9,7.3-10,15.8-11.9,25c-7,32.7,4.4,66.7,29.8,88.5c1.1,1,2.1,1.7,3,2.5c2.3,1.8,5.5,1.4,7.3-0.9
	C141.1,234.3,140.8,231.1,138.6,229.2L138.6,229.2z"/>
<path class="st2" d="M84.5,196.7c-2.3-0.1-4.2-1.7-4.7-3.9c-3.8-14.6-4.5-29.7-2.2-44.6c0.5-2.8,3.3-4.7,6.1-4.2
	c2.7,0.5,4.6,3,4.2,5.8c-2.1,13.5-1.4,27.2,2,40.4c0.7,2.8-1,5.6-3.8,6.4C85.6,196.7,85,196.8,84.5,196.7z"/>
<path class="st2" d="M88.1,133.9c-0.6,0-1.2-0.2-1.8-0.4c-2.6-1.1-3.8-4.2-2.7-6.8c0,0,0,0,0,0c17.9-41.1,65.8-59.9,106.9-42
	c4.1,1.8,8.1,3.9,11.9,6.4c2.4,1.6,2.9,4.9,1.3,7.3c-1.6,2.3-4.6,2.9-7,1.5c-32.8-21.3-76.6-12.1-98,20.7c-2.1,3.3-4,6.7-5.6,10.3
	C92.3,132.7,90.3,134,88.1,133.9z"/>
<path class="st2" d="M174.2,235.3c-0.3,0-0.5,0-0.8-0.1c-26.4-5.7-47.4-26.8-53.5-53.9c-0.6-2.8,1.1-5.6,3.9-6.2s5.6,1.1,6.2,3.9
	c5.1,23.1,23,41.1,45.5,46c2.8,0.6,4.6,3.4,4,6.2C179,233.7,176.8,235.4,174.2,235.3z"/>
<path class="st2" d="M191,171.4c-0.3,0-0.5-0.1-0.8-0.1c-2.8-0.6-4.6-3.4-4-6.2c4-15.4-5.2-31.1-20.6-35.1
	c-15.4-4-31.1,5.2-35.1,20.6c-0.2,0.8-0.4,1.6-0.5,2.4c-0.5,2.2-0.8,4.4-1,6.6c-0.4,2.8-3.1,4.8-5.9,4.4c-2.7-0.4-4.6-2.7-4.5-5.4
	c0.3-2.6,0.7-5.2,1.2-7.8c4.7-21.1,25.6-34.5,46.7-29.8c20.9,4.6,34.2,25.2,29.9,46.2C195.9,169.8,193.6,171.6,191,171.4z"/>
<path class="st2" d="M189.8,192.3c-1.3-0.1-2.7-0.3-4-0.5c-5.8-1.3-11-4.5-14.8-9.1c-1.8-2.2-1.5-5.5,0.8-7.3
	c2.2-1.8,5.5-1.5,7.3,0.8c2.2,2.8,5.4,4.7,8.9,5.4c8.5,1.8,16.9-3.6,18.7-12.1c5-23.3-7.2-46.8-29.1-56.2c-2.7-1-4-4-3-6.7
	c1-2.7,4-4,6.7-3c0.1,0,0.2,0.1,0.4,0.2c26.5,11.3,41.2,39.8,35.2,67.9C214.2,184.3,202.7,193,189.8,192.3z"/>
<path class="st2" d="M188.7,213.7c-2.9-0.2-5.1-2.6-4.9-5.5c0.2-2.8,2.5-5,5.3-4.9c9.1,0.3,17.9-2.6,25.1-8.1
	c2.3-1.7,5.6-1.2,7.3,1.2c1.6,2.2,1.2,5.2-0.8,7c-9.1,7-20.3,10.7-31.8,10.3H188.7z"/>
<path class="st2" d="M168.3,208.7c-0.7,0-1.4-0.2-2-0.5c-20.3-10-30.8-31.3-26.1-52.9c2.1-9.8,11.8-16.1,21.7-14c0,0,0,0,0,0
	c9.1,1.9,14.9,10.7,14.2,21.3c-0.2,2.9-2.6,5-5.5,4.9l0,0c-2.9-0.2-5-2.7-4.9-5.5c0.3-4.3-1.5-9.4-6-10.4c-4.2-0.9-8.4,1.8-9.3,6
	c-3.6,16.9,4.6,33.5,20.5,41.4c2.6,1.3,3.6,4.4,2.4,7C172.4,207.7,170.5,208.8,168.3,208.7L168.3,208.7z"/>
</svg>
