<?xml version="1.0" encoding="UTF-8" standalone="no"?>
<svg
	xmlns:dc="http://purl.org/dc/elements/1.1/"
	xmlns:cc="http://creativecommons.org/ns#"
	xmlns:rdf="http://www.w3.org/1999/02/22-rdf-syntax-ns#"
	xmlns:svg="http://www.w3.org/2000/svg"
	xmlns="http://www.w3.org/2000/svg"
   viewBox="0 0 400 400"
   height="400"
   width="400"
   xml:space="preserve"
   id="svg2"
   version="1.1">
	<metadata
     id="metadata8">
		<rdf:RDF>
			<cc:Work
         rdf:about="">
				<dc:format>image/svg+xml</dc:format>
				<dc:type
           rdf:resource="http://purl.org/dc/dcmitype/StillImage" />
				<dc:title></dc:title>
			</cc:Work>
		</rdf:RDF>
	</metadata>
	<defs
     id="defs6">
		<clipPath
       id="clipPath20"
       clipPathUnits="userSpaceOnUse">
			<path
         id="path18"
         d="M 0,0 H 300 V 300 H 0 Z" />
		</clipPath>
	</defs>
	<g
     transform="matrix(1.3333333,0,0,-1.3333333,0,400)"
     id="g10">
		<path
       id="path12"
       style="fill:#003b3f;fill-opacity:1;fill-rule:nonzero;stroke:none"
       d="M 0,0 H 300 V 300 H 0 Z" />
		<g
       id="g14">
			<g
         clip-path="url(#clipPath20)"
         id="g16">
				<g
           transform="translate(82.6921,133.3236)"
           id="g22">
					<path
             id="path24"
             style="fill:#ffffff;fill-opacity:1;fill-rule:nonzero;stroke:none"
             d="m 0,0 c 0,3.657 -1.778,6.423 -6.323,6.423 -4.15,0 -7.115,-2.668 -8.596,-4.644 V -29.048 H -30.135 V 0 c 0,3.657 -1.679,6.423 -6.323,6.423 -4.051,0 -6.917,-2.668 -8.497,-4.644 v -30.827 h -15.216 v 47.723 h 15.216 v -5.829 c 2.075,2.766 8.201,7.015 15.709,7.015 6.818,0 11.56,-2.865 13.537,-8.499 2.766,4.151 8.991,8.499 16.5,8.499 8.793,0 14.326,-4.546 14.326,-14.327 V -29.048 H 0 Z" />
				</g>
				<g
           transform="translate(109.2228,98.348)"
           id="g26">
					<path
             id="path28"
             style="fill:#ffffff;fill-opacity:1;fill-rule:nonzero;stroke:none"
             d="M 0,0 C 3.458,0 5.631,0.692 6.422,2.668 L 7.509,5.236 -11.462,53.65 H 4.544 L 15.314,23.417 26.183,53.65 H 42.288 L 20.749,-0.889 C 16.895,-10.967 9.683,-13.239 0.592,-13.438 c -1.383,0 -4.94,0.298 -6.521,0.792 L -3.755,0.889 C -2.668,0.297 -1.186,0 0,0" />
				</g>
				<g
           transform="translate(55.2248,92.2298)"
           id="g30">
					<path
             id="path32"
             style="fill:#ffffff;fill-opacity:1;fill-rule:nonzero;stroke:none"
             d="m 0,0 c 14.426,0 23.318,-7.113 28.159,-15.313 l -14.227,-7.509 c -2.668,4.346 -7.707,7.804 -13.932,7.804 -10.77,0 -18.377,-8.299 -18.377,-19.069 0,-10.769 7.607,-19.069 18.377,-19.069 5.138,0 9.782,1.779 12.449,3.953 v 5.532 H -2.667 v 14.13 H 29.147 V -55.33 C 22.034,-63.135 12.449,-68.174 0,-68.174 c -19.662,0 -35.667,13.141 -35.667,34.087 C -35.667,-13.14 -19.662,0 0,0" />
				</g>
				<g
           transform="translate(124.6755,49.1527)"
           id="g34">
					<path
             id="path36"
             style="fill:#ffffff;fill-opacity:1;fill-rule:nonzero;stroke:none"
             d="m 0,0 c 0,6.323 -3.754,11.56 -10.473,11.56 -6.619,0 -10.275,-5.237 -10.275,-11.56 0,-6.423 3.656,-11.66 10.275,-11.66 C -3.754,-11.66 0,-6.423 0,0 m -36.458,0 c 0,13.437 9.781,24.997 25.985,24.997 16.402,0 26.085,-11.56 26.085,-24.997 0,-13.438 -9.683,-25.097 -26.085,-25.097 -16.204,0 -25.985,11.659 -25.985,25.097" />
				</g>
				<g
           transform="translate(136.8117,72.9632)"
           id="g38">
					<path
             id="path40"
             style="fill:#ffffff;fill-opacity:1;fill-rule:nonzero;stroke:none"
             d="M 0,0 H 16.006 L 26.776,-30.233 37.644,0 H 53.75 L 34.977,-47.722 H 18.773 Z" />
				</g>
				<path
           id="path42"
           style="fill:#3cff00;fill-opacity:1;fill-rule:nonzero;stroke:none"
           d="m 193.716,90.196 h 15.216 V 25.242 h -15.216 z" />
				<g
           transform="translate(244.7741,40.0619)"
           id="g44">
					<path
             id="path46"
             style="fill:#3cff00;fill-opacity:1;fill-rule:nonzero;stroke:none"
             d="m 0,0 c 11.561,0 18.279,8.399 18.279,18.181 0,10.176 -6.126,18.081 -18.179,18.081 H -10.67 V 0 Z M -27.664,51.082 H 0 c 20.749,0 35.669,-12.449 35.669,-32.901 0,-20.452 -14.92,-33.001 -35.569,-33.001 h -27.764 z" />
				</g>
				<g
           transform="translate(239.4391,290.1117)"
           id="g48">
					<path
             id="path50"
             style="fill:#3cff00;fill-opacity:1;fill-rule:nonzero;stroke:none"
             d="m 0,0 c -1.997,0.114 -3.895,1.216 -4.945,3.09 -1.636,2.921 -0.595,6.613 2.326,8.25 10.86,6.083 23.148,9.167 35.537,8.917 3.386,-0.102 6.006,-2.837 5.937,-6.182 C 38.788,10.728 36.021,8.069 32.674,8.137 22.44,8.343 12.284,5.794 3.305,0.764 2.259,0.178 1.114,-0.064 0,0" />
				</g>
				<g
           transform="translate(248.3434,158.7005)"
           id="g52">
					<path
             id="path54"
             style="fill:#3cff00;fill-opacity:1;fill-rule:nonzero;stroke:none"
             d="m 0,0 -3.208,2.648 c -26.198,22.501 -37.968,57.444 -30.715,91.2 1.911,8.892 5.761,16.985 11.444,24.055 2.096,2.609 1.681,6.424 -0.927,8.521 -2.611,2.099 -6.427,1.682 -8.522,-0.927 -6.877,-8.555 -11.535,-18.347 -13.845,-29.102 -8.189,-38.112 5.102,-77.563 34.687,-102.96 1.294,-1.111 2.4,-2.024 3.483,-2.873 1.011,-0.795 2.197,-1.218 3.391,-1.287 1.889,-0.108 3.799,0.666 5.073,2.249 C 2.943,-5.89 2.56,-2.112 0,0" />
				</g>
				<g
           transform="translate(185.3112,196.5433)"
           id="g56">
					<path
             id="path58"
             style="fill:#3cff00;fill-opacity:1;fill-rule:nonzero;stroke:none"
             d="m 0,0 c -2.561,0.147 -4.845,1.923 -5.52,4.54 -4.395,17.058 -5.248,34.526 -2.534,51.921 0.517,3.308 3.623,5.568 6.923,5.055 C 2.177,60.999 4.44,57.899 3.924,54.593 1.465,38.838 2.237,23.016 6.219,7.565 7.054,4.323 5.104,1.019 1.862,0.183 1.238,0.021 0.611,-0.035 0,0" />
				</g>
				<g
           transform="translate(189.5524,269.6732)"
           id="g60">
					<path
             id="path62"
             style="fill:#3cff00;fill-opacity:1;fill-rule:nonzero;stroke:none"
             d="m 0,0 c -0.693,0.04 -1.392,0.201 -2.066,0.494 -3.071,1.334 -4.478,4.903 -3.144,7.974 17.853,41.091 62.643,64.075 106.505,54.65 11.346,-2.437 22.02,-6.881 31.728,-13.207 2.805,-1.827 3.597,-5.582 1.77,-8.387 -1.827,-2.805 -5.582,-3.598 -8.387,-1.768 C 117.944,45.27 108.64,49.142 98.748,51.268 60.516,59.48 21.468,39.451 5.908,3.639 4.867,1.242 2.465,-0.142 0,0" />
				</g>
				<g
           transform="translate(289.7829,151.6507)"
           id="g64">
					<path
             id="path66"
             style="fill:#3cff00;fill-opacity:1;fill-rule:nonzero;stroke:none"
             d="m 0,0 c -0.309,0.018 -0.62,0.06 -0.933,0.127 -30.812,6.62 -55.258,31.238 -62.277,62.714 -0.728,3.267 1.329,6.507 4.597,7.235 3.269,0.734 6.506,-1.331 7.235,-4.596 C -45.387,38.608 -24.586,17.608 1.614,11.979 4.888,11.275 6.971,8.052 6.267,4.779 5.631,1.819 2.933,-0.169 0,0" />
				</g>
				<g
           transform="translate(309.3132,226.0345)"
           id="g68">
					<path
             id="path70"
             style="fill:#3cff00;fill-opacity:1;fill-rule:nonzero;stroke:none"
             d="m 0,0 c -0.31,0.018 -0.621,0.06 -0.933,0.126 -3.273,0.703 -5.356,3.927 -4.652,7.199 3.877,18.05 -7.651,35.888 -25.7,39.766 -8.741,1.876 -17.695,0.24 -25.206,-4.613 -7.511,-4.855 -12.682,-12.344 -14.561,-21.086 -0.528,-2.462 -0.933,-5.067 -1.205,-7.743 -0.338,-3.331 -3.319,-5.776 -6.641,-5.419 -3.331,0.337 -5.756,3.311 -5.419,6.641 0.316,3.118 0.792,6.169 1.414,9.066 2.558,11.91 9.601,22.109 19.832,28.72 10.23,6.614 22.422,8.848 34.333,6.285 C -4.155,53.66 11.548,29.363 6.266,4.778 5.63,1.818 2.932,-0.169 0,0" />
				</g>
				<g
           transform="translate(307.8893,201.6507)"
           id="g72">
					<path
             id="path74"
             style="fill:#3cff00;fill-opacity:1;fill-rule:nonzero;stroke:none"
             d="m 0,0 c -1.547,0.089 -3.104,0.297 -4.665,0.633 -6.752,1.452 -12.861,5.207 -17.204,10.573 -2.105,2.604 -1.702,6.419 0.9,8.524 2.602,2.106 6.418,1.703 8.525,-0.898 2.643,-3.269 6.215,-5.463 10.326,-6.348 9.896,-2.131 19.67,4.203 21.797,14.103 5.81,27.044 -8.416,54.532 -33.827,65.36 -3.081,1.312 -4.513,4.872 -3.201,7.952 1.313,3.08 4.874,4.515 7.953,3.2 C 21.346,89.999 38.559,56.75 31.53,24.04 28.335,9.167 14.731,-0.846 0,0" />
				</g>
				<g
           transform="translate(282.9333,182.6341)"
           id="g76">
					<path
             id="path78"
             style="fill:#3cff00;fill-opacity:1;fill-rule:nonzero;stroke:none"
             d="m 0,0 c -0.788,0.046 -1.581,0.247 -2.335,0.619 -23.579,11.655 -35.786,36.411 -30.373,61.603 1.191,5.548 4.473,10.299 9.238,13.379 4.766,3.081 10.445,4.12 15.994,2.927 C 3.072,76.263 9.867,66.074 9.05,53.754 8.83,50.432 5.973,47.913 2.655,48.104 c -0.018,10e-4 -0.036,0.002 -0.054,0.003 -3.34,0.222 -5.868,3.109 -5.646,6.45 0.334,5.044 -1.706,10.988 -6.977,12.12 -2.382,0.511 -4.822,0.067 -6.868,-1.257 -2.047,-1.322 -3.455,-3.362 -3.967,-5.745 C -25.083,40.005 -15.48,20.64 3.037,11.486 6.038,10.003 7.268,6.367 5.785,3.367 4.674,1.119 2.354,-0.136 0,0" />
				</g>
			</g>
		</g>
	</g>
</svg>